# xmcd
#
# Track frame offsets:
#	150
#	18987
#	39417
#	64804
#	81524
#	101408
#	118415
#	137638
#	155629
#	173351
#	193768
#	215574
#	232250
#	249564
#	264217
#	284637
#	318692
#
# Disc length: 4585
#
# Revision: 1
# Processed by: cddbd v1.5.1PL0 Copyright (c) Steve Scherf et al.
# Submitted via: EasyCDDAExtractor 7.1.3.1
# Normalized: r0:DSETVAR1
#
DISCID=fe11e711
DTITLE=Various Artist - Reise, Reise and Amerika
DYEAR=1900
DGENRE=
TTITLE0=Rammstein - 01 - Reise, Reise
TTITLE1=Rammstein - 02 - Mein Teil
TTITLE2=Rammstein - 03 - Dalai Lama
TTITLE3=Rammstein - 04 - Keine Lust
TTITLE4=Rammstein - 05 - Los
TTITLE5=Rammstein - 06 - Amerika
TTITLE6=Rammstein - 07 - Moskau
TTITLE7=Rammstein - 08 - Morgenstern
TTITLE8=Rammstein - 09 - Stein um Stein
TTITLE9=Rammstein - 10 - Ohne Dich
TTITLE10=Rammstein - 11 - Amour
TTITLE11=Rammstein - 02 - Amerika (English Version)
TTITLE12=Rammstein - 03 - Amerika (Digital Hardcore Mix) By Alec Empire
TTITLE13=Rammstein - 04 - Amerika (Western-Remix) By Olsen Involtini
TTITLE14=Rammstein - 06 - Amerika (Electro Ghetto Remix) By Bushido and Ilan
TTITLE15=Rammstein - 07 - Amerika (Jam and Spoon So Kann´s Gehen Mix)
TTITLE16=08 - Mein Herz Brennt Orchesterlied V
EXTD=
EXTT0=
EXTT1=
EXTT2=
EXTT3=
EXTT4=
EXTT5=
EXTT6=
EXTT7=
EXTT8=
EXTT9=
EXTT10=
EXTT11=
EXTT12=
EXTT13=
EXTT14=
EXTT15=
EXTT16=
PLAYORDER=
